<svg width="1473" height="165" viewBox="0 0 1473 165" fill="none" xmlns="http://www.w3.org/2000/svg">
<mask id="mask0_122_1034" style="mask-type:alpha" maskUnits="userSpaceOnUse" x="0" y="0" width="1473" height="165">
<rect width="1473" height="165" fill="white"/>
</mask>
<g mask="url(#mask0_122_1034)">
<path d="M1319 -328C1319 -351.748 1299.75 -371 1276 -371H166C142.252 -371 123 -351.748 123 -328V41.5C123 41.5 234.966 128.887 400.37 73.1375C565.774 17.3885 822.787 112.638 1034 105.629C1245.2 98.6195 1319 25.0224 1319 25.0224V-328Z" fill="url(#paint0_linear_122_1034)" fill-opacity="0.2"/>
<path d="M123 -345C123 -368.748 142.252 -388 166 -388H1265.36C1289.11 -388 1308.36 -368.748 1308.36 -345V7.19739C1308.36 7.19739 1384.02 12.4434 1131.81 26.4327C879.607 40.422 935.089 21.511 637.488 91.1332C490.383 125.547 349.967 97.7226 286.915 66.9119C223.862 36.1011 123 7.19739 123 7.19739V-345Z" fill="url(#paint1_linear_122_1034)" fill-opacity="0.2"/>
<path d="M1319 -323C1319 -346.748 1299.75 -366 1276 -366H166C142.252 -366 123 -346.748 123 -323V28.5505C123 28.5505 270.591 96.6367 435.996 41.0949C601.4 -14.4469 802.431 90.9946 1054.35 101.875C1306.27 112.756 1319 41.0949 1319 41.0949V-3.30586V-150.197V-323Z" fill="url(#paint2_linear_122_1034)" fill-opacity="0.2"/>
<path d="M168 -332.086C168 -356.188 187.808 -375.583 211.904 -375.076L1247.5 -353.289C1268.99 -352.837 1286.84 -336.593 1289.31 -315.246L1304.4 -185.018C1305.61 -174.563 1302.94 -164.026 1296.91 -155.405L1245.21 -81.5806C1245.21 -81.5806 1015.37 7.56557 1229.12 20.1611C1442.88 32.7567 837.251 109.56 626.043 102.549C414.834 95.5369 168 20.1611 168 20.1611V-332.086Z" fill="url(#paint3_linear_122_1034)" fill-opacity="0.2"/>
<path d="M148 -335.395C148 -359.378 167.62 -378.726 191.601 -378.391L1252.88 -363.561C1275.47 -363.245 1293.97 -345.497 1295.21 -322.937L1303.28 -176.959V4.40762C1303.28 4.40762 1323.64 2.47454 1069.17 16.4736C814.706 30.4727 794.341 29.0473 494.069 98.7181C193.797 168.389 148 16.4736 148 16.4736V-335.395Z" fill="url(#paint4_linear_122_1034)" fill-opacity="0.2"/>
</g>
<defs>
<linearGradient id="paint0_linear_122_1034" x1="1319" y1="25.0222" x2="345.278" y2="-572.854" gradientUnits="userSpaceOnUse">
<stop stop-color="#8834CB"/>
<stop offset="0.504873" stop-color="#8834CB"/>
<stop offset="1" stop-color="#043AF8"/>
</linearGradient>
<linearGradient id="paint1_linear_122_1034" x1="123" y1="7.19717" x2="1091.67" y2="-583.517" gradientUnits="userSpaceOnUse">
<stop stop-color="#FF0101"/>
<stop offset="0.504873" stop-color="#FF0101"/>
<stop offset="1" stop-color="#DEE132"/>
</linearGradient>
<linearGradient id="paint2_linear_122_1034" x1="1319" y1="28.5505" x2="347.267" y2="-570.33" gradientUnits="userSpaceOnUse">
<stop stop-color="#00F0FF"/>
<stop offset="0.504873" stop-color="#CBC534"/>
<stop offset="1" stop-color="#90C5F7"/>
</linearGradient>
<linearGradient id="paint3_linear_122_1034" x1="123.023" y1="11.1717" x2="1096.93" y2="-586.61" gradientUnits="userSpaceOnUse">
<stop stop-color="#00FFC2"/>
<stop offset="0.504873" stop-color="#FA00FF"/>
<stop offset="1" stop-color="#DEE132"/>
</linearGradient>
<linearGradient id="paint4_linear_122_1034" x1="122.561" y1="8.12951" x2="1095.54" y2="-590.122" gradientUnits="userSpaceOnUse">
<stop stop-color="#51FF4E"/>
<stop offset="0.504873" stop-color="#01FF76"/>
<stop offset="1" stop-color="#DEE132"/>
</linearGradient>
</defs>
</svg>
